<?xml version="1.0" encoding="utf-8"?>
<!-- Generator: Adobe Illustrator 24.1.0, SVG Export Plug-In . SVG Version: 6.00 Build 0)  -->
<svg version="1.1" id="Layer_1" xmlns="http://www.w3.org/2000/svg" xmlns:xlink="http://www.w3.org/1999/xlink" x="0px" y="0px"
	 viewBox="0 0 1430.7 594.2" style="enable-background:new 0 0 1430.7 594.2;" xml:space="preserve">
<style type="text/css">
	.st0{fill:#FFFFFF;}
</style>
<g>
	<path class="st0" d="M372.6,414.8c-17.2,0-29.6-5-37-14.9c-7.4-9.9-11.1-24.6-11.1-43.9c0-19.3,6.2-63.9,18.7-133.6h-6.4
		c-16.2,21.2-29.6,46.5-40.2,76c-10.6,29.4-17.1,55.9-19.5,79.5c-13,12.2-28,18.3-44.9,18.3c-6.9,0-12.9-2.4-18.1-7.4
		c-5.2-4.9-10.3-13.5-15.3-25.7c-9.8-24.7-16.8-71.6-21.1-140.8h-6.4c-13,57-19.5,97.2-19.5,120.5c0,23.3,4,41.4,11.9,54.1
		c-15.9,11.9-32.5,17.9-49.7,17.9c-17.2,0-29.6-5-37-14.9C69.7,390,66,375.1,66,355.4c0-19.7,8.4-75.8,25.1-168l-21.1-42.6
		c30-19.4,57.3-29,81.9-29c10.9,0,20.1,1.1,27.6,3.4c7.6,2.3,14.8,6.6,21.9,12.9c7,6.4,12.8,15.2,17.3,26.6
		c10.3,25.7,17.8,63.2,22.3,112.5h4.8c13.8-40.6,32.9-75.4,57.3-104.6c13.3-15.6,29.1-28,47.5-37c18.4-9,38.4-13.5,59.9-13.5
		c20.4,0,30.6,12.3,30.6,37c0,8.2-5.1,38.8-15.3,91.7c-10.2,52.9-15.3,84.4-15.3,94.5c0,25.7,4,44.9,11.9,57.7
		C406.4,408.8,389.8,414.8,372.6,414.8z"/>
	<path class="st0" d="M542.8,414.4c-23.3,0-39.6-5.7-48.9-17.1c-9.3-11.4-13.9-25.8-13.9-43.1c0-17.4,2.9-41.2,8.7-71.4
		c5.8-30.2,8.7-52.1,8.7-65.6s-2.8-24.1-8.4-31.8c24.7-13,45.5-19.5,62.4-19.5c10.9,0,18.8,2.2,23.7,6.6c4.9,4.4,7.4,11.5,7.4,21.3
		c0,9.8-4,33.9-12.1,72.2c-8.1,38.3-12.1,62-12.1,71c0,9,2.5,16.1,7.6,21.3c5,5.2,11.7,7.8,19.9,7.8c8.2,0,17-3.2,26.2-9.7
		c9.3-6.5,16.8-15.7,22.7-27.6c3.7-21.5,11-55.4,21.9-101.8l-23.9-31.8c26.8-19.3,52.2-29,76.4-29c11.9,0,20.5,2.2,25.7,6.6
		c5.2,4.4,7.8,11,7.8,19.9c0,8.9-4.8,34.3-14.5,76.2c-9.7,41.9-14.5,71.7-14.5,89.3c0,17.6,4.1,30,12.3,37.2
		c-14.9,13-30.4,19.5-46.7,19.5c-16.3,0-28-3.6-35.2-10.7c-7.2-7.2-10.7-16.6-10.7-28.2l-4-2c-8.7,12.7-20.9,22.7-36.4,30
		C577.2,410.8,560.5,414.4,542.8,414.4z"/>
	<path class="st0" d="M817.2,157.1l-22.3-31.8c33.1-19.3,59.3-29,78.3-29c10.9,0,18.6,2.2,23.1,6.6c4.5,4.4,6.8,12.6,6.8,24.7
		c0,12.1-5.9,46.1-17.7,102c-11.8,55.9-17.7,95.2-17.7,117.7c0,22.5,4.1,38.4,12.3,47.7c-18.6,13-35.4,19.5-50.5,19.5
		c-15.1,0-26.2-5-33.2-14.9c-7-9.9-10.5-23.7-10.5-41.2c0-17.5,4.9-53.3,14.7-107.4C810.3,196.9,815.9,165.6,817.2,157.1z"/>
	<path class="st0" d="M937.7,260.9c-1.9-7.4-2.8-14.3-2.8-20.7c0-13,3.8-22.8,11.5-29.4c7.7-6.6,17.6-9.9,29.8-9.9
		c0-13.8-3.6-28.8-10.7-44.9c13-9.5,24.9-16.8,35.6-21.7c10.7-4.9,22.1-7.4,34-7.4c11.9,0,20.2,2.2,24.9,6.6c4.6,4.4,7,11.1,7,20.1
		c0,9-1.9,23.1-5.6,42.2c10.6-1.6,21.3-3.8,32.2-6.8c1.9,5.6,2.8,12.7,2.8,21.5s-3.4,16.9-10.1,24.5c-6.8,7.6-16.6,11.3-29.6,11.3
		h-6c-9.5,43.2-14.3,76.5-14.3,99.8c0,23.3,4.1,39.6,12.3,48.9c-14.9,13-30.6,19.5-47.3,19.5c-16.7,0-28.7-5-36-14.9
		c-7.3-9.9-10.9-25.4-10.9-46.3c0-12.7,4.6-46.1,13.9-100.2C957.7,254.8,947.5,257.5,937.7,260.9z"/>
	<path class="st0" d="M1232.4,396.5c-12.5,4.5-24.9,6.8-37.4,6.8c-12.5,0-22.9-3.7-31.4-11.1c-8.5-7.4-13.4-17.5-14.7-30.2
		c-1.3-12.7-2.5-31.2-3.6-55.5c-1.1-24.3-2.1-41.4-3.2-51.5c-3.4-33.7-14.1-57.7-31.8-72c12.5-11.4,28.1-17.1,46.9-17.1
		c10.3,0,19.3,2.7,27,8.2c7.7,5.4,13.9,12.6,18.5,21.5c4.6,8.9,8.4,20.4,11.3,34.4c4.5,23.3,6.8,54.9,6.8,94.7
		c0,9.8-0.4,21.3-1.2,34.6h23.1c27.3-73.7,41-123.9,41-150.7c0-9-2-17.5-6-25.5c18.6-11.4,34.7-17.1,48.5-17.1
		c25.7,0,38.6,14.9,38.6,44.5c0,23.6-10.9,65.1-32.6,124.5c-4,10.9-6.2,17.2-6.8,19.1c-33.7,96-81.5,144-143.6,144
		c-18.8,0-34.3-4-46.5-12.1c-12.2-8.1-18.3-18.7-18.3-31.8s4.9-26.8,14.7-41.2c12.7,18,28.6,27,47.7,27c10.9,0,21-3.6,30.4-10.7
		C1219.3,422,1226.8,411.1,1232.4,396.5z"/>
</g>
</svg>
